<?xml version="1.0" encoding="UTF-8" standalone="no"?>
<svg
   xmlns:dc="http://purl.org/dc/elements/1.1/"
   xmlns:cc="http://creativecommons.org/ns#"
   xmlns:rdf="http://www.w3.org/1999/02/22-rdf-syntax-ns#"
   xmlns:svg="http://www.w3.org/2000/svg"
   xmlns="http://www.w3.org/2000/svg"
   id="svg1547"
   version="1.1"
   viewBox="0 0 210 297"
   height="297mm"
   width="210mm">
  <defs
     id="defs1541" />
  <metadata
     id="metadata1544">
    <rdf:RDF>
      <cc:Work
         rdf:about="">
        <dc:format>image/svg+xml</dc:format>
        <dc:type
           rdf:resource="http://purl.org/dc/dcmitype/StillImage" />
        <dc:title></dc:title>
      </cc:Work>
    </rdf:RDF>
  </metadata>
  <g
     id="layer1">
    <path
       d="m 227.54736,300.69112 a 52.761456,52.327202 0 0 1 -52.76146,52.32721 52.761456,52.327202 0 0 1 -52.76146,-52.32721 52.761456,52.327202 0 0 1 52.76146,-52.3272 52.761456,52.327202 0 0 1 52.76146,52.3272 z m -54.28134,-0.8685 a 51.675831,51.024452 0 0 1 -51.67583,51.02446 51.675831,51.024452 0 0 1 -51.675833,-51.02446 51.675831,51.024452 0 0 1 51.675833,-51.02445 51.675831,51.024452 0 0 1 51.67583,51.02445 z m -53.84709,-1.73699 a 49.287449,49.287449 0 0 1 -49.287452,49.28744 49.287449,49.287449 0 0 1 -49.287449,-49.28744 49.287449,49.287449 0 0 1 49.287449,-49.28745 49.287449,49.287449 0 0 1 49.287452,49.28745 z m -45.162067,-1.5199 a 51.024452,47.333321 0 0 1 -51.024452,47.33332 51.024452,47.333321 0 0 1 -51.024452,-47.33332 51.024452,47.333321 0 0 1 51.024452,-47.33332 51.024452,47.333321 0 0 1 51.024452,47.33332 z"
       style="opacity:1;fill:#f9f9f9;fill-opacity:0.71729958;stroke-width:0.26458332"
       id="path2182" />
  </g>
</svg>
