<?xml version="1.0" encoding="UTF-8" standalone="no"?>
<svg
   xmlns:dc="http://purl.org/dc/elements/1.1/"
   xmlns:cc="http://creativecommons.org/ns#"
   xmlns:rdf="http://www.w3.org/1999/02/22-rdf-syntax-ns#"
   xmlns:svg="http://www.w3.org/2000/svg"
   xmlns="http://www.w3.org/2000/svg"
   width="4300.7007"
   height="200.60629"
   viewBox="0 0 1137.8934 53.077081"
   version="1.1"
   id="svg1547">
  <defs
     id="defs1541" />
  <metadata
     id="metadata1544">
    <rdf:RDF>
      <cc:Work
         rdf:about="">
        <dc:format>image/svg+xml</dc:format>
        <dc:type
           rdf:resource="http://purl.org/dc/dcmitype/StillImage" />
        <dc:title></dc:title>
      </cc:Work>
    </rdf:RDF>
  </metadata>
  <g
     style="fill:#ffffff;fill-opacity:1"
     id="layer1"
     transform="translate(0,-243.92292)">
    <path
       id="path2323"
       style="opacity:1;fill:#ffffff;fill-opacity:1;stroke-width:0.26458332"
       d="m 792.9416,323.48929 a 75.559605,69.04585 0 0 1 -75.55961,69.04585 75.559605,69.04585 0 0 1 -75.55959,-69.04585 75.559605,69.04585 0 0 1 75.55959,-69.04585 75.559605,69.04585 0 0 1 75.55961,69.04585 z m -92.06112,-3.90827 a 62.966338,63.400591 0 0 1 -62.96633,63.40059 62.966338,63.400591 0 0 1 -62.96635,-63.40059 62.966338,63.400591 0 0 1 62.96635,-63.40059 62.966338,63.400591 0 0 1 62.96633,63.40059 z m -56.45259,-1.737 a 54.281322,48.636067 0 0 1 -54.28132,48.63607 54.281322,48.636067 0 0 1 -54.28132,-48.63607 54.281322,48.636067 0 0 1 54.28132,-48.63606 54.281322,48.636067 0 0 1 54.28132,48.63606 z m -81.63911,-6.94799 a 45.596315,46.030564 0 0 1 -45.59632,46.03056 45.596315,46.030564 0 0 1 -45.59631,-46.03056 45.596315,46.030564 0 0 1 45.59631,-46.03056 45.596315,46.030564 0 0 1 45.59632,46.03056 z m -45.16206,-4.77677 a 49.938821,42.990808 0 0 1 -49.93882,42.99081 49.938821,42.990808 0 0 1 -49.93881,-42.99081 49.938821,42.990808 0 0 1 49.93881,-42.9908 49.938821,42.990808 0 0 1 49.93882,42.9908 z m -61.66359,-2.6055 a 45.162061,42.122308 0 0 1 -45.16206,42.12232 45.162061,42.122308 0 0 1 -45.16206,-42.12232 45.162061,42.122308 0 0 1 45.16206,-42.1223 45.162061,42.122308 0 0 1 45.16206,42.1223 z m -40.81955,-2.6055 a 46.899064,39.516805 0 0 1 -46.89906,39.51682 46.899064,39.516805 0 0 1 -46.89907,-39.51682 46.899064,39.516805 0 0 1 46.89907,-39.5168 46.899064,39.516805 0 0 1 46.89906,39.5168 z m 742.56852,30.39754 a 75.559605,69.04585 0 0 1 -75.5596,69.04585 75.559605,69.04585 0 0 1 -75.5596,-69.04585 75.559605,69.04585 0 0 1 75.5596,-69.04585 75.559605,69.04585 0 0 1 75.5596,69.04585 z m -92.0611,-3.90827 a 62.966338,63.400591 0 0 1 -62.9663,63.40059 62.966338,63.400591 0 0 1 -62.9664,-63.40059 62.966338,63.400591 0 0 1 62.9664,-63.40059 62.966338,63.400591 0 0 1 62.9663,63.40059 z m -56.4526,-1.737 a 54.281322,48.636067 0 0 1 -54.28133,48.63607 54.281322,48.636067 0 0 1 -54.28132,-48.63607 54.281322,48.636067 0 0 1 54.28132,-48.63606 54.281322,48.636067 0 0 1 54.28133,48.63606 z m -81.63912,-6.94799 a 45.596315,46.030564 0 0 1 -45.59632,46.03056 45.596315,46.030564 0 0 1 -45.59631,-46.03056 45.596315,46.030564 0 0 1 45.59631,-46.03056 45.596315,46.030564 0 0 1 45.59632,46.03056 z m -45.16206,-4.77677 a 49.938821,42.990808 0 0 1 -49.93882,42.99081 49.938821,42.990808 0 0 1 -49.93882,-42.99081 49.938821,42.990808 0 0 1 49.93882,-42.9908 49.938821,42.990808 0 0 1 49.93882,42.9908 z m -61.66359,-2.6055 a 45.162061,42.122308 0 0 1 -45.16206,42.12232 45.162061,42.122308 0 0 1 -45.16206,-42.12232 45.162061,42.122308 0 0 1 45.16206,-42.1223 45.162061,42.122308 0 0 1 45.16206,42.1223 z m -40.81955,-2.6055 a 46.899064,39.516805 0 0 1 -46.89907,39.51682 46.899064,39.516805 0 0 1 -46.89907,-39.51682 46.899064,39.516805 0 0 1 46.89907,-39.5168 46.899064,39.516805 0 0 1 46.89907,39.5168 z m -383.00903,15.63302 a 75.559605,69.04585 0 0 1 -75.55961,69.04585 75.559605,69.04585 0 0 1 -75.55959,-69.04585 75.559605,69.04585 0 0 1 75.55959,-69.04585 75.559605,69.04585 0 0 1 75.55961,69.04585 z m -92.06112,-3.90827 a 62.966338,63.400591 0 0 1 -62.96633,63.40059 62.966338,63.400591 0 0 1 -62.96635,-63.40059 62.966338,63.400591 0 0 1 62.96635,-63.40059 62.966338,63.400591 0 0 1 62.96633,63.40059 z m -56.45259,-1.737 a 54.281322,48.636067 0 0 1 -54.28132,48.63607 54.281322,48.636067 0 0 1 -54.28132,-48.63607 54.281322,48.636067 0 0 1 54.28132,-48.63606 54.281322,48.636067 0 0 1 54.28132,48.63606 z m -81.63911,-6.94799 a 45.596315,46.030564 0 0 1 -45.59632,46.03056 45.596315,46.030564 0 0 1 -45.59631,-46.03056 45.596315,46.030564 0 0 1 45.59631,-46.03056 45.596315,46.030564 0 0 1 45.59632,46.03056 z m -45.16206,-4.77677 a 49.938821,42.990808 0 0 1 -49.93882,42.99081 49.938821,42.990808 0 0 1 -49.938818,-42.99081 49.938821,42.990808 0 0 1 49.938818,-42.9908 49.938821,42.990808 0 0 1 49.93882,42.9908 z m -61.66359,-2.6055 a 45.162061,42.122308 0 0 1 -45.16206,42.12232 45.162061,42.122308 0 0 1 -45.162064,-42.12232 45.162061,42.122308 0 0 1 45.162064,-42.1223 45.162061,42.122308 0 0 1 45.16206,42.1223 z m -40.819554,-2.6055 a 46.899064,39.516805 0 0 1 -46.899064,39.51682 46.899064,39.516805 0 0 1 -46.899069,-39.51682 46.899064,39.516805 0 0 1 46.899069,-39.5168 46.899064,39.516805 0 0 1 46.899064,39.5168 z" />
  </g>
</svg>
